<svg id="Calque_1" xmlns="http://www.w3.org/2000/svg" viewBox="0 0 156 31.9"><style>.st4{fill:#ee4a53}</style><linearGradient id="Rectangle_1_1_" gradientUnits="userSpaceOnUse" x1="-286.544" y1="662.726" x2="-285.544" y2="662.726" gradientTransform="matrix(31.302 0 0 -31.302 8969.392 20760.568)"><stop offset="0" stop-color="#f06841"/><stop offset="1" stop-color="#eb206d"/></linearGradient><path id="Rectangle_1" fill="url(#Rectangle_1_1_)" d="M0 0h31.3v31.9H0z"/><g id="Groupe_3" transform="translate(7.046 6.762)"><g id="Groupe_1" transform="translate(2.178 2.501)" opacity=".2"><path id="Tracé_1" d="M0 9.1c1.5.7 2.4 2.2 2.4 3.9v4.7c0 1.5 1.2 2.4 2.8 2.6.3 0 .5.2.5.4v1.5c0 .2-.2.4-.6.4-3.6-.1-6.1-2.1-6.1-5.1v-4.7c0-1.3-1.1-2.4-2.5-2.4-.3 0-.5-.2-.5-.4V8.3c0-.2.2-.4.5-.4 1.4-.2 2.5-1 2.5-2.4V1c0-3.1 2.5-5 6.1-5.1.3 0 .6.2.6.4v1.5c0 .2-.2.4-.5.4-1.5-.1-2.7 1-2.8 2.5v4.6C2.4 7 1.5 8.4 0 9.1z" fill="#87182d"/></g><g id="Groupe_2"><path id="Tracé_2" d="M0 9.1c1.5.7 2.4 2.2 2.4 3.9v4.7c0 1.5 1.2 2.4 2.8 2.6.3 0 .5.2.5.4v1.5c0 .2-.2.4-.6.4-3.6-.1-6.1-2.1-6.1-5.1v-4.7c0-1.3-1.1-2.4-2.5-2.4-.3 0-.5-.2-.5-.4V8.3c0-.2.2-.4.5-.4 1.4-.2 2.5-1 2.5-2.4V1c0-3.1 2.5-5 6.1-5.1.3 0 .6.2.6.4v1.5c0 .2-.2.4-.5.4-1.5-.1-2.7 1-2.8 2.5v4.5c0 1.7-.9 3.2-2.4 3.9z" fill="#fff"/></g></g><path id="Rectangle_180" class="st4" d="M41.4 28h45.3v2.9H41.4z"/><path id="Rectangle_181" class="st4" d="M100.7 28h54.9v2.9h-54.9z"/><path d="M53.6 16.3h-2v4c0 2.3.5 2.7 3.3 2.7v1h-9.1v-.9c2-.1 2.4-.5 2.4-2.6V9.8c0-2.1-.3-2.5-2.2-2.6v-.9h8c4.6 0 7.1 1.7 7.1 4.9 0 3.3-2.7 5.1-7.5 5.1zm-2-1.4h1.5c2.9 0 4.3-1.2 4.3-3.7 0-2.3-1.1-3.6-3.6-3.6H52c-.3 0-.4.2-.4.4v6.9zm15.8 5.5c0 2.4.3 2.6 2.4 2.6v1h-7.7v-.9c1.9-.1 2-.4 2-2.7v-2.8c0-3.8-.3-4.3-2.1-4.3v-.8l4.6-.9.4 2.6h.1c.8-1.6 2.3-2.6 3.8-2.6 1.2 0 2 .6 2 1.5 0 1-.6 1.7-1.6 1.7-.9 0-1.4-.9-2-.9-.6 0-1.1.8-1.5 2.1-.3.9-.4 2.1-.4 3.3v1.1zm19.8-2.6c0 3.7-3.1 6.4-6.8 6.4-3.6 0-6.7-2.7-6.7-6.4 0-3.6 3.1-6.2 6.7-6.2s6.8 2.6 6.8 6.2zm-9.9 0c0 3 1.2 5 3.1 5 1.9 0 3.2-2 3.2-5 0-2.9-1.3-4.9-3.2-4.9-1.9 0-3.1 2-3.1 4.9zM97 22c2.4.3 3.8 1.9 3.8 4 0 2.6-2.2 4-6.3 4-3.8 0-6-1.2-6-3.2 0-1.6.9-2.4 2.2-2.4.8 0 1.6.3 2.1.9-.8.2-1.4.8-1.4 1.5 0 1.2 1.1 1.9 3.2 1.9 2.3 0 3.4-.7 3.4-2.2 0-1-.7-1.9-2-2l-4-.6c-1.7-.2-2.6-1-2.6-2.3 0-1.2.9-2.1 2.3-2.4v-.1c-1.4-.6-2.4-2.1-2.4-3.6 0-2.3 2-4 4.7-4 1.3 0 2.6.4 3.5 1.1 1.4-.9 2-1.1 2.8-1.1 1.2 0 2 .6 2 1.4 0 .6-.4 1.1-1.1 1.1-.9 0-1-1-1.9-1-.3 0-.6.2-.9.6.3.5.4 1.1.4 1.9 0 2.3-1.4 4-4.9 4.4-1.4.2-2 .4-2 .9 0 .4.3.6 1 .6 2 .3 2.8.3 4.1.6zm-1.1-6.3c0-1.9-.6-3-1.6-3s-1.7 1.1-1.7 2.9c0 1.8.7 3 1.7 3 1 .1 1.6-1 1.6-2.9z"/><path d="M109.2 24.2h-1.7l-3.2-9.5c-.5-1.5-1.1-2-2.1-2v-.9h6.6v.9c-1.1 0-1.5.3-1.5 1 0 .3.1.7.3 1.2l1.4 5.4h.1l3.2-8.5h1.9l2.4 8.5h.1l1.8-4.8c.3-.8.4-1.3.4-1.7 0-.8-.6-1.1-1.4-1.1v-.9h4.9v.9c-1.1 0-1.3.2-2.6 3.5l-3.2 8h-1.8l-2.4-8.2h-.1l-3.1 8.2zm19.2-4c0 2.4.2 2.8 2 2.9v.9h-7.2v-.9c1.7-.1 2-.5 2-2.7v-2.8c0-1.8-.1-3-.2-3.4-.2-.8-.6-.9-2-.9v-.8l5.3-.9v8.6zm-1.6-15.3c1 0 1.8.8 1.8 1.8s-.8 1.8-1.8 1.8-1.8-.8-1.8-1.8c.1-1 .8-1.8 1.8-1.8zm6 19.1h-.7v-4.2h1c.5 2.2 1.5 3.2 3 3.2 1.1 0 1.8-.5 1.8-1.3 0-.9-.7-1.6-2.4-2.6-2.3-1.3-3.3-2.4-3.3-4 0-2 1.6-3.6 3.7-3.6.9 0 2 .3 2.6.8l.4-.6h.6v3.5h-.9c-.7-1.7-1.4-2.5-2.5-2.5-.9 0-1.4.5-1.4 1.3 0 .9.7 1.6 2.4 2.5 2.5 1.3 3.5 2.5 3.5 4.2 0 2.1-1.7 3.5-4.2 3.5-1.3 0-2.5-.4-3.2-1l-.4.8zm21.2-2.1c-1.4 1.6-3.1 2.4-5.2 2.4-3.8 0-6.3-2.5-6.3-6.2 0-3.8 2.7-6.5 6.6-6.5 3.2 0 5.2 1.9 5.2 5 0 .5 0 .5-.8.5H146c-.1.2-.1.4-.1.8 0 3 1.4 4.9 3.6 4.9 1.3 0 2.6-.6 3.8-1.7l.7.8zm-4.5-6.1c1.2 0 1.4-.1 1.4-.6 0-1.3-.8-2.3-2-2.3-1.3 0-2.5 1.2-2.8 2.9h3.4z"/></svg>