<svg xmlns="http://www.w3.org/2000/svg" viewBox="0 0 739.9 163.3"><path d="M254.3 77l-31.8-36.7V77h-22.3V1.3h21.2l31.8 37.3V1.3h22.3V77h-21.2zm105.3-67c7.1 6.7 10.7 16.4 10.7 29.2s-3.6 22.5-10.7 29.1c-7.1 6.7-17.2 10-30.2 10-13.1 0-23.1-3.3-30.2-10-7.1-6.6-10.6-16.4-10.6-29.2s3.5-22.6 10.6-29.2c7.1-6.6 17.1-10 30.2-10 13 .1 23.1 3.4 30.2 10.1zm-42.1 12.9c-2.7 3.2-4.1 7.4-4.1 12.8v7c0 5.4 1.4 9.6 4.1 12.8 2.7 3.2 6.7 4.7 11.9 4.7s9.2-1.6 11.9-4.7c2.8-3.2 4.1-7.4 4.1-12.8v-7c0-5.4-1.4-9.6-4.1-12.8-2.8-3.2-6.7-4.7-11.9-4.7-5.2-.1-9.2 1.5-11.9 4.7zM449 70.2c-6.5 5.4-15.8 8.1-27.8 8.1s-21.3-2.7-27.9-8.1c-6.6-5.4-9.8-13.3-9.8-23.7V1.3h24.3v44.9c0 4.3 1.1 7.6 3.4 10.2 2.3 2.5 5.6 3.8 9.9 3.8 4.3 0 7.6-1.3 10-3.9 2.3-2.6 3.5-5.9 3.5-10.1V1.3h24.3v45.2c-.1 10.4-3.4 18.3-9.9 23.7zm81.7-64.3c6.2 3.9 9.4 9.7 9.6 17.4v1.3h-22.8v-.4c0-2.2-.8-4-2.4-5.5-1.6-1.5-4.1-2.2-7.4-2.2-3.2 0-5.7.5-7.4 1.4-1.7 1-2.6 2.1-2.6 3.5 0 2 1.2 3.4 3.5 4.4 2.3 1 6.1 1.9 11.3 3 6.1 1.2 11.1 2.5 15 3.9 3.9 1.4 7.4 3.6 10.3 6.7 2.9 3.1 4.4 7.3 4.5 12.5 0 8.9-3 15.6-9.1 19.9-6 4.3-14.1 6.5-24.3 6.5-11.8 0-21-2-27.6-5.9-6.6-4-9.8-11-9.8-21h23c0 3.8 1 6.4 3 7.6 2 1.3 5.1 1.9 9.2 1.9 3.1 0 5.6-.3 7.6-1s3-2 3-4.1c0-1.8-1.1-3.2-3.4-4.1-2.2-.9-5.9-1.9-10.9-2.9-6.2-1.3-11.3-2.7-15.3-4.1-4-1.4-7.6-3.8-10.6-7.1s-4.5-7.8-4.5-13.4c0-8.3 3.2-14.4 9.6-18.3C488.9 2 497 0 506.8 0c9.7 0 17.7 2 23.9 5.9zM65.9 93.4c6.5 5.6 9.8 13.6 9.8 24H52.5c0-4.4-1.2-7.9-3.5-10.5-2.3-2.6-5.6-3.9-9.8-3.9-4.9 0-8.5 1.5-10.8 4.6s-3.5 7.4-3.5 12.9v7c0 5.4 1.2 9.7 3.5 12.8 2.3 3.1 5.8 4.7 10.6 4.7 4.7 0 8.2-1.2 10.7-3.6s3.6-5.8 3.6-10.2h22.4c0 10.3-3.2 18.3-9.5 23.8s-15.3 8.2-26.9 8.2c-12.9 0-22.7-3.3-29.3-9.9-6.6-6.6-10-16.4-10-29.3 0-12.9 3.3-22.7 10-29.3 6.6-6.6 16.4-9.9 29.3-9.9 11.2.2 20.1 3 26.6 8.6zm90.7 1.6c7.1 6.7 10.7 16.4 10.7 29.2s-3.6 22.5-10.7 29.1c-7.1 6.7-17.2 10-30.2 10-13.1 0-23.1-3.3-30.2-10-7.1-6.6-10.6-16.4-10.6-29.2s3.5-22.6 10.6-29.2c7.1-6.6 17.1-10 30.2-10 13 .1 23.1 3.4 30.2 10.1zm-42.1 12.9c-2.7 3.2-4.1 7.4-4.1 12.8v7c0 5.4 1.4 9.6 4.1 12.8 2.7 3.2 6.7 4.7 11.9 4.7s9.2-1.6 11.9-4.7c2.8-3.2 4.1-7.4 4.1-12.8v-7c0-5.4-1.4-9.6-4.1-12.8-2.8-3.2-6.7-4.7-11.9-4.7-5.2-.1-9.2 1.5-11.9 4.7zm120 54.1l-31.8-36.7V162h-22.3V86.3h21.2l31.8 37.3V86.3h22.3V162h-21.2zm81.1-56.3V162h-24.3v-56.3h-24.9V86.3h73.9v19.4h-24.7zm79.1 56.3l-3.2-10.7H365l-3.2 10.7h-24.9l27.6-75.7h28.3l27.6 75.7h-25.7zM370 134.4h16.4l-7.9-27h-.4l-8.1 27zm120.3-41c6.5 5.6 9.8 13.6 9.8 24h-23.2c0-4.4-1.2-7.9-3.5-10.5-2.3-2.6-5.6-3.9-9.8-3.9-4.9 0-8.5 1.5-10.8 4.6s-3.5 7.4-3.5 12.9v7c0 5.4 1.2 9.7 3.5 12.8 2.3 3.1 5.8 4.7 10.6 4.7 4.7 0 8.2-1.2 10.7-3.6s3.6-5.8 3.6-10.2h22.4c0 10.3-3.2 18.3-9.5 23.8s-15.3 8.2-26.9 8.2c-12.9 0-22.7-3.3-29.3-9.9-6.6-6.6-10-16.4-10-29.3 0-12.9 3.3-22.7 10-29.3 6.6-6.6 16.4-9.9 29.3-9.9 11.2.2 20 3 26.6 8.6zm66.4 12.3V162h-24.3v-56.3h-24.9V86.3h73.9v19.4h-24.7zm35.9-19.4H658v18.2h-41.1v10.4h35.2v17.4h-35.2v11.6h41.9V162h-66.2V86.3zm111.3 57.6h36V162h-73.4v-7.8l35.1-49.7h-32.5V86.3H739v7.8l-35.1 49.8z" fill="#fff"/></svg>